<svg width="64" height="64" viewBox="0 0 64 64" fill="none" xmlns="http://www.w3.org/2000/svg">
  <rect width="64" height="64" rx="20" fill="#FFF8F5"/>
  <circle cx="32" cy="32" r="21" fill="#F8E8E8"/>
  <path d="M22 26.5C22 21.2533 26.2533 17 31.5 17H32.5C37.7467 17 42 21.2533 42 26.5V39C42 44.2467 37.7467 48.5 32.5 48.5H31.5C26.2533 48.5 22 44.2467 22 39V26.5Z" fill="#FFFDFB"/>
  <path d="M27 16.5C28.3333 14.8333 30.3333 14 33 14C35.6667 14 37.6667 14.8333 39 16.5" stroke="#D8BF9C" stroke-width="2.5" stroke-linecap="round"/>
  <path d="M26 40.5C29.5556 43.0556 34.4444 43.0556 38 40.5" stroke="#5A4141" stroke-width="2.5" stroke-linecap="round"/>
</svg>